# xmcd
#
# Track frame offsets: 
#        150
#        12290
#        29540
#        43950
#        60525
#        69315
#        80635
#        96387
#        113352
#        129375
#        147525
#        159060
#        175712
#        187857
#        204345
#        217987
#        229822
#        243675
#        254325
#        267507
#        276662
#
# Disc length: 3902 seconds
#
# Revision: 1
# Processed by: cddbd v1.5.1PL2 Copyright (c) Steve Scherf et al.
# Submitted via: ExactAudioCopy v0.95a5
#
DISCID=2f0f3c15
DTITLE=Various Artist - Sentimental Souvenirs
DYEAR=1980
DGENRE=Blues
TTITLE0=Kenny Rogers - It Has To Be You
TTITLE1=Henry Mancini, His Piano and Orchestra - All The Things You Ar
TTITLE1=e
TTITLE2=The Fireside Singers - The Anniversary Song
TTITLE3=Margaret Whiting - I Only Have Eyes For You
TTITLE4=The Lombardo Trio with Guy Lombardo and His Royal Canadians - 
TTITLE4=Embraceable You
TTITLE5=Eddy Howard - To Each His Own
TTITLE6=Frank Sinatra - If I Didn't Care
TTITLE7=The John Mc Carthy Chorale - I Love You Truly
TTITLE8=Jim Tyler His Piano and Orchestra - Till The End Of Time
TTITLE9=Vic Damone - Love Is Here To Stay
TTITLE10=Vaughn Monroe - Red Roses For A Blue Lady
TTITLE11=Jo Stafford with the Pied Pipers - Blue Moon
TTITLE12=Henry Mancini and His Orchestra - Smoke Gets In Your Eyes
TTITLE13=The Romantic - I Ger Along Without You Very Well
TTITLE14=Rosemary Clooney - Harbor Lights
TTITLE15=Harry James and His Orchestra - You'll Never Know
TTITLE16=Engelbert Humperdink - I Don't Want To Walk Without You
TTITLE17=Floyd Cramer - I'm So Lonesome I Could Cry
TTITLE18=Lombardo's Royal Canadians - Deep Purple
TTITLE19=Patti Page - I'll Never Smile Again
TTITLE20=Ed A - My Melancholy Baby
EXTD=
EXTT0=
EXTT1=
EXTT2=
EXTT3=
EXTT4=
EXTT5=
EXTT6=
EXTT7=
EXTT8=
EXTT9=
EXTT10=
EXTT11=
EXTT12=
EXTT13=
EXTT14=
EXTT15=
EXTT16=
EXTT17=
EXTT18=
EXTT19=
EXTT20=
PLAYORDER=
